<?xml version="1.0" encoding="utf-8"?>
<!-- Generator: Adobe Illustrator 24.0.1, SVG Export Plug-In . SVG Version: 6.00 Build 0)  -->
<svg version="1.1" id="Layer_1" xmlns="http://www.w3.org/2000/svg" xmlns:xlink="http://www.w3.org/1999/xlink" x="0px" y="0px"
	 viewBox="0 0 254.8 254.8" style="enable-background:new 0 0 254.8 254.8;" xml:space="preserve">
<style type="text/css">
	.st0{enable-background:new    ;}
	.st1{fill:#F2EDED;}
	.st2{fill:#F2C4CD;}
</style>
<title>Asset 5</title>
<g id="Layer_2_1_">
	<g id="Layer_1-2">
		<circle cx="127.4" cy="127.4" r="127.4"/>
		<g class="st0">
			<path class="st1" d="M104.1,141.8c1.2,6.1,0,11.1-3.6,14.9c-3.9,4.1-10,6.2-18.4,6.5H60.5c-0.8,0.1-1.6-0.1-2.4-0.5
				c-1.6-0.8-2.3-2.3-2.2-4.6c0-0.9,0.1-4,0.1-9.6c0.1-7.7,0.2-15.8,0.2-24.5c0-16.1,0.1-24,0.1-23.9c-0.2-3.4-0.1-7.3,0.3-11.4
				c0.1-1.4,1.3-2.1,3.7-2.3c0.3,0,2,0,5.2,0.2c9,0.3,14.6,0.7,17,1.1c6.6,1.3,11.3,4,14.2,8.2c3.9,5.8,4.8,11.7,2.8,17.8
				c-2.1,6.1-6.4,10-12.9,11.8c2.6,0.8,5.2,2,8,3.7C99.9,132.7,103.1,136.9,104.1,141.8z M80.2,105.3c0,1.2,0.4,2.2,1.2,3.1
				c0.9,0.9,1.9,1.3,3.1,1.3c1.2,0,2.2-0.4,3.1-1.3s1.3-1.9,1.3-3.1c0-1.2-0.4-2.3-1.3-3.1c-0.9-0.8-1.9-1.2-3.1-1.2
				c-1.2,0-2.3,0.4-3.1,1.2C80.6,103.1,80.2,104.1,80.2,105.3z M93.2,150.3c1.2,0,2.2-0.4,3.1-1.2c0.9-0.9,1.3-1.9,1.3-3.1
				c0-1.2-0.4-2.2-1.3-3.1c-0.8-0.9-1.8-1.3-3.1-1.3c-1.2,0-2.2,0.4-3.1,1.3c-0.9,0.9-1.3,1.9-1.3,3.1c0,1.2,0.4,2.3,1.3,3.1
				C91,149.9,92,150.3,93.2,150.3z"/>
		</g>
		<g class="st0">
			<path class="st1" d="M116.5,135.5c-1.8,0-2.7-0.6-2.7-1.9v-5.7c0-1.3,0.9-2,2.8-2h24.3c1.9,0,2.8,0.7,2.8,2v5.7
				c0,1.3-0.9,1.9-2.7,1.9H116.5z"/>
		</g>
		<g class="st0">
			<path class="st2" d="M155.4,92.8H197v18.5h-19.1v7.8h18.7v17.6h-18.7v26.7h-22.6V92.8z M168.7,155v-25.7h20.1v-2.5h-20.1v-22.9
				h21.2v-2.5H166V155H168.7z"/>
		</g>
	</g>
</g>
</svg>
