<?xml version="1.0" encoding="utf-8"?>
<!-- Generator: Adobe Illustrator 24.0.1, SVG Export Plug-In . SVG Version: 6.00 Build 0)  -->
<svg version="1.1" id="Layer_1" xmlns="http://www.w3.org/2000/svg" xmlns:xlink="http://www.w3.org/1999/xlink" x="0px" y="0px"
	 viewBox="0 0 800.7 447.9" style="enable-background:new 0 0 800.7 447.9;" xml:space="preserve">
<style type="text/css">
	.st0{enable-background:new    ;}
	.st1{fill:#FFFFFF;}
	.st2{fill:#F2C4CD;}
</style>
<title>Asset 7</title>
<g id="Layer_2_1_">
	<g id="Layer_1-2">
		<g class="st0">
			<path class="st1" d="M122.9,156.8c2.7,13.4,0,24.2-7.9,32.6c-8.4,8.9-21.8,13.6-40.2,14.2H27.7c-1.8,0.2-3.6-0.2-5.3-1.1
				c-3.5-1.8-5.1-5.1-4.8-10c0.1-1.9,0.2-8.8,0.2-20.9c0.2-16.7,0.4-34.5,0.4-53.4c0.1-35.1,0.1-52.5,0.1-52.1
				c-0.4-7.5-0.2-15.8,0.6-25c0.2-3,2.9-4.6,8-5c0.6-0.1,4.4,0,11.4,0.4c19.6,0.7,32,1.5,37,2.5c14.4,2.7,24.7,8.7,30.9,17.9
				c8.5,12.6,10.5,25.5,6.1,38.8c-4.5,13.3-13.9,21.8-28.2,25.7c5.6,1.6,11.4,4.3,17.5,8.1C113.6,136.9,120.7,146,122.9,156.8z
				 M70.7,77.2c0,2.6,0.9,4.8,2.7,6.7c1.9,1.9,4.1,2.8,6.8,2.8c2.6,0,4.8-0.9,6.7-2.8s2.8-4.1,2.8-6.7c0-2.7-0.9-4.9-2.8-6.8
				c-1.9-1.8-4.1-2.7-6.7-2.7c-2.7,0-4.9,0.9-6.8,2.7C71.6,72.3,70.7,74.6,70.7,77.2z M99.2,175.3c2.7,0,4.9-0.9,6.7-2.7
				c1.9-1.9,2.8-4.1,2.8-6.8c0-2.6-0.9-4.8-2.8-6.7c-1.8-1.9-4-2.8-6.7-2.8c-2.7,0-4.9,0.9-6.7,2.8c-1.9,1.9-2.8,4.1-2.8,6.7
				c0,2.7,0.9,4.9,2.8,6.8C94.3,174.4,96.5,175.3,99.2,175.3z"/>
			<path class="st1" d="M204.2,127.7c-13.6-0.1-26.9-0.5-40-1.2c-8.5-0.4-13.5,0.7-15,3.2l-0.7,10.4c-0.2,2.2,0,3.7,0.6,4.5
				c0.5,0.9,1.4,1.3,2.9,1.4c0.9,0,3-0.2,6.2-0.5c3.8-0.4,7-0.6,9.8-0.7c4.1-0.2,7.1,0.2,9,0.9c2.9,1.3,4.4,3.5,4.6,6.8
				c0.1,1.7,0,3.8-0.4,6.1c-0.4,2.7-2,4-4.7,4c-2.3,0-5.6-0.2-10.1-0.6c-5.2-0.4-9.2-0.5-12.2-0.2c-2.5,0.2-4.1,1.6-4.9,4.2
				c-0.2,0.5-0.3,1.6-0.4,3.5c-0.2,2-0.1,3,0.2,3c2.3-0.2,5.4-0.3,9.3-0.5c14.3-0.5,27.1-1,38.4-1.3c3.8-0.1,7.2,0.1,10.4,0.5
				c3.9,0.5,7.2,1.8,9.8,3.6c2.8,2,4.2,6.1,4.1,12.5c-0.1,5.9-0.7,10-2,12.4c-1.1,2.2-3.2,3.5-6.4,3.9c0.1,0-2.6,0-8.1,0.1
				c-3,0.1-8.8,0.1-17.3,0c-5.1-0.1-12.1-0.1-21.2,0c-0.9,0-7.3,0-19.2,0h-5.6c-2.7,0-4.5,0-5.6,0c-3.7,0-6.2-1.1-7.5-3.3
				c-0.7-1-1-2.1-0.9-3.2c0.9-58.4,1.4-92.3,1.4-101.7c0-3.3,0.4-5.7,1.3-7.4c1.4-2.6,3.5-4,6.2-4.2c2.5-0.2,6.2-0.2,11.2,0
				c2.3,0.1,16,0.1,41.2,0.1c13.5,0,21.9,0,25.1,0.1c4.6,0.1,7.5,0.9,8.8,2.6c1.7,2.2,2.4,5.6,2.1,10.2c-0.5,8.2-0.7,12.6-0.7,13.1
				c0.1,3.4,0,6.1-0.1,8c-0.4,4.7-1.4,7.5-2.9,8.6c-0.5,0.4-3.2,0.7-8.2,1.1c-1.2,0.1-2.6,0.1-4.3,0
				C206.3,127.8,204.9,127.7,204.2,127.7z"/>
			<path class="st1" d="M297,152.3c-2.7,1.7-5.7,3.2-9,4.6c-6,2.3-9.1,3.4-9.3,3.3c13.6,22.8,20.7,34.6,21.2,35.3
				c2.4,3.1,2.5,5,0.1,5.6c-11.1,3-18,3.7-20.9,2c-5.4-2.7-10.6-6.6-15.7-11.7c-0.9-0.9-2.3-2.3-4.1-4c-2-1.8-3.4-3.1-4.2-3.9
				c-1.7-1.7-3.4-3.4-5-4.9c-0.4-0.3-1.1-1-2.1-2.1c-0.9-0.9-1.6-1.5-2.1-2c-0.4-0.3-0.9-0.7-1.6-1.3c-0.7-0.5-1.3-1.1-1.8-1.5
				c-0.5-0.4-0.6-0.5-0.5-0.5c-0.2-0.2-0.4-0.2-0.5-0.2c-0.2,0-0.2,0.2-0.2,0.5c0,8.4,0,13.8-0.1,16.2c0,0.5,0,1.4,0,2.8
				c0,1.5,0,2.7,0,3.5c-0.2,3-0.6,5-1.4,6c-1.2,1.4-3,2-5.4,1.9c-2.3-0.1-4.1-0.7-5.4-1.9c-1-0.9-1.6-3.5-1.6-7.9V90.9
				c0.5-2.6,2.4-4.3,5.6-5.2c0.7-0.2,3.1-0.4,7.3-0.6c7-0.5,12.3-0.8,16.1-0.9c10.8-0.3,19.8,0.8,27.1,3.3c8.2,2.9,14.7,7.9,19.6,15
				c4.8,7.1,7.2,15.2,7.1,24.3c-0.1,4.9-0.9,9-2.3,12.3C305,145.2,301.4,149.6,297,152.3z M286,118.9c0,1.6,0.5,2.9,1.6,3.9
				c1,1.1,2.3,1.6,3.9,1.6c1.6,0,2.9-0.5,3.9-1.6c1.1-1,1.6-2.3,1.6-3.9c0-1.6-0.5-2.9-1.6-3.9c-1-1.1-2.3-1.6-3.9-1.6
				c-1.6,0-2.9,0.5-3.9,1.6C286.5,116.1,286,117.4,286,118.9z"/>
			<path class="st1" d="M333.3,163.9c1,0.9,4,1.4,9,1.3c2.3,0,7-0.2,13.8-0.5c5.8-0.3,10.4-0.4,13.7-0.4c4.7,0.1,6.8,0.1,6.3,0
				c2.3,0.3,4.1,1.3,5.2,2.9c1.1,1.7,1.7,4.1,1.8,7.1c0.1,1,0,2.3-0.1,3.9c-0.1,2.2-0.1,3.4-0.1,3.8c-0.3,9.9-2.1,16.1-5.5,18.5
				c-1.2,0.9-4.3,1.7-9.3,2.3c-4.1,0.6-16.4,0.9-36.9,0.7c-0.4-0.1-1.8-0.1-4.1,0c-1.7,0.1-3.1,0.1-4.2,0c-3.4-0.2-5.9-1.1-7.7-2.6
				c-1.2-1-1.9-2.8-2.1-5.3c-0.4-5.2-0.5-14.1-0.2-26.5c0.1-7.3,0.2-16.3,0.4-27.1c0.1-1.7,0.1-4.2,0.1-7.5c0.1-3.4,0.1-5.9,0.1-7.5
				c0.2-11.6,0.1-20.5-0.5-26.6c-0.5-5.9-0.3-9.8,0.5-11.6c1.2-2.7,3.7-4.3,7.3-4.9c3.4-0.5,6.3,0,8.7,1.5c2.4,1.6,3.9,4.6,4.5,8.8
				c0,0.2,0,3.6,0.1,10.4c0.1,5.4-0.1,13.8-0.5,25.3c-0.3,8-0.5,12.9-0.5,14.4c-0.1,1.3-0.2,3.2-0.2,5.9c-0.1,2.6-0.2,4.5-0.2,5.9
				c0,0.4,0,1-0.1,1.9c-0.1,0.9-0.2,1.5-0.2,2c-0.1,1.6,0.2,2.8,0.9,3.5C333.2,163.8,333.2,163.9,333.3,163.9z"/>
			<path class="st1" d="M386.1,176.2c0.3-9.6,0.5-23,0.7-40.1c0.2-18.9,0.5-32.3,0.7-40.2c0-1.8,0.2-3.4,0.7-4.8
				c0.8-2.2,2.2-3.8,4.2-4.7c2.2-0.9,5.2-1.6,9.1-2.1c3.1-0.4,6.5-0.5,10.2-0.4c2.2,0,3.9,0.4,5.3,1.1c2.1,1.2,3.9,2.8,5.3,4.8
				c1.1,1.6,1.6,3.9,1.6,7c0,9.5,0,14.5,0.1,15c1.2,23.6,1.2,46.1,0.1,67.4c-0.4,7.6-0.8,12.1-1.3,13.7c-1.3,4.3-4.4,7.2-9.3,8.7
				c-9.6,3-16.6,3.2-20.9,0.5c-3.4-2.1-5.6-6-6.4-11.6c-0.4-2.8-0.5-7.5-0.2-13.9C386.1,176.4,386.1,176.3,386.1,176.2z"/>
			<path class="st1" d="M506.1,134.2c0-5-0.9-12.6-2.6-22.7c-0.1-0.2-0.5-2.3-1.3-6.3c-0.6-2.8-1-5.2-1.1-7
				c-0.3-5.4,1.3-9.3,4.9-11.6c3-1.9,7-2.7,11.7-2.5c5.1,0.2,8.7,1.7,10.9,4.5c2.2,2.7,3.2,6.3,3.2,10.9c0,2-0.5,5.8-1.5,11.6
				c-2,12.3-3,22.3-2.8,29.9c0.3,18.2,0.6,29.6,0.9,34.1c0.2,2.6,0.5,6.3,1.1,11.1c0.4,3.8,0.4,6.6,0,8.7c-0.6,3.1-2.2,5.4-4.8,6.9
				c-5.2,3-11.1,3.8-17.5,2.3c-3.8-0.9-6.7-2.1-8.9-3.8c-2.7-2-4.7-5-6.1-9c-0.6-1.7-1.5-5.4-2.6-10.9c-2.6-12.3-4.6-21.4-6.1-27.4
				c-1.6-6.2-3-11.6-4.3-15.9c-1.6-5.2-3.6-8-6-8.2c-1.3-0.2-2.7,0.4-4.1,1.5c-1.3,1.1-2.2,2.3-2.7,3.6c-0.7,1.6-1.4,5.8-2,12.4
				c-0.9,8.6-0.7,18.1,0.5,28.5c0.3,2.4,1.1,6.7,2.2,12.8c0.8,4,1.2,5.7,1.2,5.3c0.2,2.2-0.2,3.9-1.2,5.2c-1.7,2.1-5,3.7-10,4.7
				c-3,0.7-5.2,1.1-6.4,1.3c-5.2,0.5-9.6,0.2-13.2-0.9c-4.9-1.5-7.9-4.3-9-8.6c-0.3-1.4-0.2-10.1,0.2-26c0.7-25.1,0.9-41.2,0.6-48.4
				c-0.5-12,0.2-21.2,2.3-27.7c0.9-2.6,2.7-4.4,5.4-5.5c1.6-0.6,4.2-1.2,8-1.6c8-0.9,15.1-1.1,21.4-0.5c4.7,0.4,8.1,1.4,10.2,3
				c2.3,1.7,5,6.7,8.3,15c2.4,6.3,5.4,13.2,8.9,20.7c1.5,3.4,2.9,7.5,4.3,12.4c1.6,5.9,3.8,9.3,6.3,10.4
				C505.5,146.9,506.1,142.8,506.1,134.2z"/>
			<path class="st1" d="M611.2,127.7c-13.6-0.1-26.9-0.5-40-1.2c-8.5-0.4-13.5,0.7-15,3.2l-0.7,10.4c-0.2,2.2,0,3.7,0.6,4.5
				c0.5,0.9,1.4,1.3,2.9,1.4c0.9,0,3-0.2,6.2-0.5c3.8-0.4,7-0.6,9.8-0.7c4.1-0.2,7.1,0.2,9,0.9c2.9,1.3,4.4,3.5,4.6,6.8
				c0.1,1.7,0,3.8-0.4,6.1c-0.4,2.7-2,4-4.7,4c-2.3,0-5.6-0.2-10.1-0.6c-5.2-0.4-9.2-0.5-12.2-0.2c-2.5,0.2-4.1,1.6-4.9,4.2
				c-0.2,0.5-0.3,1.6-0.4,3.5c-0.2,2-0.1,3,0.2,3c2.3-0.2,5.4-0.3,9.3-0.5c14.3-0.5,27.1-1,38.4-1.3c3.8-0.1,7.2,0.1,10.4,0.5
				c3.9,0.5,7.2,1.8,9.8,3.6c2.8,2,4.2,6.1,4.1,12.5c-0.1,5.9-0.7,10-2,12.4c-1.1,2.2-3.2,3.5-6.4,3.9c0.1,0-2.6,0-8.1,0.1
				c-3,0.1-8.8,0.1-17.3,0c-5.1-0.1-12.1-0.1-21.2,0c-0.9,0-7.3,0-19.2,0h-5.6c-2.7,0-4.5,0-5.6,0c-3.7,0-6.2-1.1-7.5-3.3
				c-0.7-1-1-2.1-0.9-3.2c0.9-58.4,1.4-92.3,1.4-101.7c0-3.3,0.4-5.7,1.3-7.4c1.4-2.6,3.5-4,6.2-4.2c2.5-0.2,6.2-0.2,11.2,0
				c2.3,0.1,16,0.1,41.2,0.1c13.5,0,21.9,0,25.1,0.1c4.6,0.1,7.5,0.9,8.8,2.6c1.7,2.2,2.4,5.6,2.1,10.2c-0.5,8.2-0.7,12.6-0.7,13.1
				c0.1,3.4,0,6.1-0.1,8c-0.4,4.7-1.4,7.5-2.9,8.6c-0.5,0.4-3.2,0.7-8.2,1.1c-1.2,0.1-2.6,0.1-4.3,0
				C613.3,127.8,611.9,127.7,611.2,127.7z"/>
			<path class="st1" d="M704,152.3c-2.7,1.7-5.7,3.2-9,4.6c-6,2.3-9.1,3.4-9.3,3.3c13.6,22.8,20.7,34.6,21.2,35.3
				c2.4,3.1,2.5,5,0.1,5.6c-11.1,3-18,3.7-20.9,2c-5.4-2.7-10.6-6.6-15.7-11.7c-0.9-0.9-2.3-2.3-4.1-4c-2-1.8-3.4-3.1-4.2-3.9
				c-1.7-1.7-3.4-3.4-5-4.9c-0.4-0.3-1.1-1-2.1-2.1c-0.9-0.9-1.6-1.5-2.1-2c-0.4-0.3-0.9-0.7-1.6-1.3c-0.7-0.5-1.3-1.1-1.8-1.5
				c-0.5-0.4-0.6-0.5-0.5-0.5c-0.2-0.2-0.4-0.2-0.5-0.2c-0.2,0-0.2,0.2-0.2,0.5c0,8.4,0,13.8-0.1,16.2c0,0.5,0,1.4,0,2.8
				c0,1.5,0,2.7,0,3.5c-0.2,3-0.6,5-1.4,6c-1.2,1.4-3,2-5.4,1.9c-2.3-0.1-4.1-0.7-5.4-1.9c-1-0.9-1.6-3.5-1.6-7.9V90.9
				c0.5-2.6,2.4-4.3,5.6-5.2c0.7-0.2,3.1-0.4,7.3-0.6c7-0.5,12.3-0.8,16.1-0.9c10.8-0.3,19.8,0.8,27.1,3.3c8.2,2.9,14.7,7.9,19.6,15
				c4.8,7.1,7.2,15.2,7.1,24.3c-0.1,4.9-0.9,9-2.3,12.3C712,145.2,708.4,149.6,704,152.3z M693,118.9c0,1.6,0.5,2.9,1.6,3.9
				c1,1.1,2.3,1.6,3.9,1.6c1.6,0,2.9-0.5,3.9-1.6c1.1-1,1.6-2.3,1.6-3.9c0-1.6-0.5-2.9-1.6-3.9c-1-1.1-2.3-1.6-3.9-1.6
				c-1.6,0-2.9,0.5-3.9,1.6C693.5,116.1,693,117.4,693,118.9z"/>
			<path class="st1" d="M737.2,156.1c-3.1,0-4.7-1.1-4.7-3.3v-9.7c0-2.3,1.6-3.4,4.8-3.4H779c3.2,0,4.8,1.1,4.8,3.4v9.7
				c0,2.2-1.6,3.3-4.7,3.3H737.2z"/>
		</g>
		<g class="st0">
			<path class="st2" d="M17.8,247.3h80.9v36H61.6v15.2H98v34.2H61.6v51.9H17.8V247.3z M43.7,368.1v-50h39.1v-4.9H43.7v-44.5h41.2
				v-4.9H38.3v104.4H43.7z"/>
		</g>
		<g class="st0">
			<path class="st2" d="M165.2,388.1c-8.6,0-16.5-1.1-23.5-3.3c-7-2.2-13-5.5-17.9-9.9c-4.9-4.4-8.8-9.9-11.4-16.7
				c-2.7-6.7-4-14.6-4-23.7v-87.3h43.9v85.4c0,4.8,1,8.5,3,11c2,2.5,5.3,3.8,10,3.8c4.7,0,8-1.3,10-3.8c2-2.5,3-6.2,3-11v-85.4h44.1
				v87.3c0,9.1-1.3,17-4,23.7c-2.7,6.7-6.5,12.3-11.5,16.7c-5,4.4-11,7.7-18,9.9S173.8,388.1,165.2,388.1z M165.2,363.4
				c-20.6,0-30.9-10.1-30.9-30.3v-69.4h-5.4v69.4c0,11.5,3.1,20.3,9.4,26.5c6.2,6.1,15.2,9.2,26.9,9.2c11.7,0,20.7-3.1,27-9.2
				c6.3-6.1,9.5-14.9,9.5-26.5v-69.4h-5.6v69.4C196.1,353.3,185.8,363.4,165.2,363.4z"/>
			<path class="st2" d="M236,247.3h36l37.9,52.9v-52.9h43v137.3h-36.2L279,331.9v52.7h-43V247.3z M260.5,368.1V273l67.9,95.1h5.4
				V263.8h-5.4v95.1l-67.9-95.1h-5.4v104.4H260.5z"/>
			<path class="st2" d="M367.3,247.3h44.5V279l25.9-31.7h53.7l-48.4,62.8l50.9,74.5H441l-29.2-42.4v42.4h-44.5V247.3z M393.3,368.1
				v-27.8l21.4-26.6l37.5,54.4h6.4l-40.1-58.7l36.9-45.7h-6.6l-55.4,68.4v-68.4h-5.4v104.4H393.3z"/>
		</g>
	</g>
</g>
</svg>
